HIERARCHY
ROOT root
{
	OFFSET 0.000000 0.000000 0.000000
	CHANNELS 6 Xposition Yposition Zposition Zrotation Yrotation Xrotation
	JOINT lhip
	{
		OFFSET 0.058581 -0.082280 -0.017664
		CHANNELS 3 Zrotation Yrotation Xrotation
		JOINT lknee
		{
			OFFSET 0.043451 -0.386469 0.008037
			CHANNELS 3 Zrotation Yrotation Xrotation
			JOINT lankle
			{
				OFFSET -0.014790 -0.426874 -0.037428
				CHANNELS 3 Zrotation Yrotation Xrotation
				JOINT ltoe
				{
					OFFSET 0.041054 -0.060286 0.122042
					CHANNELS 3 Zrotation Yrotation Xrotation
					End Site
					{
						OFFSET 0.000000 0.000000 0.000000
					}
				}
			}
		}
	}
	JOINT rhip
	{
		OFFSET -0.060310 -0.090513 -0.013543
		CHANNELS 3 Zrotation Yrotation Xrotation
		JOINT rknee
		{
			OFFSET -0.043257 -0.383688 -0.004843
			CHANNELS 3 Zrotation Yrotation Xrotation
			JOINT rankle
			{
				OFFSET 0.019056 -0.420046 -0.034562
				CHANNELS 3 Zrotation Yrotation Xrotation
				JOINT rtoe
				{
					OFFSET -0.034840 -0.062106 0.130323
					CHANNELS 3 Zrotation Yrotation Xrotation
					End Site
					{
						OFFSET 0.000000 0.000000 0.000000
					}
				}
			}
		}
	}
	JOINT lowerback
	{
		OFFSET 0.004439 0.124404 -0.038385
		CHANNELS 3 Zrotation Yrotation Xrotation
		JOINT upperback
		{
			OFFSET 0.004488 0.137956 0.026820
			CHANNELS 3 Zrotation Yrotation Xrotation
			JOINT chest
			{
				OFFSET -0.002265 0.056032 0.002855
				CHANNELS 3 Zrotation Yrotation Xrotation
				JOINT lowerneck
				{
					OFFSET -0.013390 0.211636 -0.033468
					CHANNELS 3 Zrotation Yrotation Xrotation
					JOINT upperneck
					{
						OFFSET 0.010113 0.088937 0.050410
						CHANNELS 3 Zrotation Yrotation Xrotation
						End Site
						{
							OFFSET 0.000000 0.000000 0.000000
						}
					}
				}
				JOINT lclavicle
				{
					OFFSET 0.071702 0.114000 -0.018898
					CHANNELS 3 Zrotation Yrotation Xrotation
					JOINT lshoulder
					{
						OFFSET 0.122921 0.045205 -0.019046
						CHANNELS 3 Zrotation Yrotation Xrotation
						JOINT lelbow
						{
							OFFSET 0.255332 -0.015649 -0.022946
							CHANNELS 3 Zrotation Yrotation Xrotation
							JOINT lwrist
							{
								OFFSET 0.265709 0.012698 -0.007375
								CHANNELS 3 Zrotation Yrotation Xrotation
								End Site
								{
									OFFSET 0.000000 0.000000 0.000000
								}
							}
						}
					}
				}
				JOINT rclavicle
				{
					OFFSET -0.082954 0.112472 -0.023707
					CHANNELS 3 Zrotation Yrotation Xrotation
					JOINT rshoulder
					{
						OFFSET -0.113228 0.046853 -0.008472
						CHANNELS 3 Zrotation Yrotation Xrotation
						JOINT relbow
						{
							OFFSET -0.260127 -0.014369 -0.031269
							CHANNELS 3 Zrotation Yrotation Xrotation
							JOINT rwrist
							{
								OFFSET -0.269108 0.006794 -0.006027
								CHANNELS 3 Zrotation Yrotation Xrotation
								End Site
								{
									OFFSET 0.000000 0.000000 0.000000
								}
							}
						}
					}
				}
			}
		}
	}
}
MOTION
Frames: 13
Frame Time: 0.033333
0.546181 0.197708 0.977267 86.163695 -0.205344 90.087333 0.342001 -2.648520 -29.960861 1.563603 -0.889696 13.465950 1.322684 7.464071 1.851804 0.000000 -0.000000 0.000000 -0.225050 -1.832902 11.133117 1.014451 12.406410 18.180458 1.733650 -0.936767 -16.170821 0.000000 -0.000000 0.000000 -1.084471 5.939159 13.089137 2.069411 -2.088506 -6.476954 0.915268 1.917410 -1.892510 3.430334 2.062282 -6.611500 -2.617277 -4.612075 8.603810 -29.900693 6.949617 -2.688574 -54.505340 -0.533407 11.871991 4.276359 -26.501713 12.722327 -4.556071 -3.109424 2.738423 29.058659 1.983343 -0.678530 47.252608 10.365576 13.990545 -9.182208 27.348030 -6.661180 6.033589 4.559142 -2.765655 
0.582880 0.204832 0.978962 86.776852 -0.977212 90.176812 0.118930 -4.146540 -30.205610 -0.286296 0.148935 18.484202 2.081163 8.467322 1.500964 0.000000 -0.000000 0.000000 -1.529879 -1.168185 10.500620 2.403238 11.342434 24.210226 2.911811 -1.071943 -13.523024 0.000000 -0.000000 0.000000 -1.658910 6.065751 12.208030 2.040742 -2.341922 -6.295851 0.579648 1.234599 -1.783238 3.510881 1.521457 -6.505588 -2.388394 -4.347512 8.768221 -29.844618 6.736650 -2.325766 -54.102366 -1.218084 11.833268 4.432032 -25.454392 12.390988 -5.167054 -2.986999 2.594591 29.486426 1.085413 -0.490337 47.881263 8.647627 14.334135 -8.898152 24.322135 -6.328860 7.220763 3.262856 -2.826470 
0.619484 0.212725 0.982083 87.667506 -1.544733 89.719734 -0.376087 -6.148437 -28.614795 -1.986893 0.723023 21.140554 4.100824 9.341249 0.160568 0.000000 -0.000000 0.000000 -3.113093 -1.081727 8.078783 4.077601 8.348538 33.079964 4.732409 -0.317886 -7.098936 0.000000 -0.000000 0.000000 -1.576107 5.922796 12.202243 1.894114 -2.484332 -6.312579 0.170190 0.676589 -1.636290 3.246821 1.025002 -6.534649 -2.252785 -3.864425 9.000938 -29.708569 5.963277 -2.116492 -54.082233 -1.939870 11.862900 4.819648 -23.915368 11.702492 -5.903597 -3.163782 2.885335 29.580854 0.371562 0.062078 48.690512 7.062662 14.066644 -9.150851 21.520891 -7.342504 6.977733 3.838352 -2.418684 
0.655072 0.221809 0.984952 88.956640 -1.477330 89.043291 -2.115898 -6.723847 -26.304025 -2.560888 -1.182015 23.198921 6.562299 10.413345 -2.200997 0.000000 -0.000000 0.000000 -4.145793 -1.081415 4.079516 5.080425 4.910066 42.782746 6.842459 -0.011656 3.329556 0.000000 -0.000000 0.000000 -0.760613 4.539954 12.444915 1.745195 -2.227772 -6.494656 -0.142793 0.526815 -1.293942 2.727652 -0.081574 -6.631819 -2.199751 -2.809887 9.173182 -29.708485 5.237227 -2.155689 -54.227048 -2.769278 11.716843 5.180782 -22.582411 11.090222 -7.202002 -2.907491 3.212122 28.889272 -0.039449 0.789765 49.762362 5.044970 13.925150 -8.813061 18.782843 -8.154917 7.973345 3.840186 -2.326021 
0.688600 0.230071 0.987916 89.260393 -1.558875 88.506119 -3.931098 -6.927692 -22.896039 -2.084012 -2.362902 22.865916 8.539779 11.513311 -4.088156 0.000000 -0.000000 0.000000 -4.913420 -0.523149 -1.635647 5.108531 2.935039 52.727339 8.142330 -0.752579 14.637678 0.000000 -0.000000 0.000000 -0.418491 2.877829 12.745079 1.675771 -1.224583 -6.349732 -0.383194 0.470377 -1.276481 2.203776 -0.940828 -6.260161 -2.103812 -1.416199 8.653116 -30.018615 4.774573 -1.896176 -53.967132 -3.992268 11.464530 5.440907 -21.813744 10.309864 -8.219067 -2.619862 3.617156 28.549413 -0.371624 1.298850 50.172836 3.591461 14.421548 -7.728037 15.520349 -8.385641 9.560212 3.111154 -1.529611 
0.721038 0.235880 0.992325 89.265751 -1.910743 87.697144 -5.191592 -6.136077 -18.214288 -2.759874 -3.724869 20.422008 9.890480 12.727412 -5.035435 0.000000 -0.000000 0.000000 -5.811479 -0.207865 -7.890084 4.111815 0.973529 61.303295 10.058410 -4.487545 27.529881 0.000000 -0.000000 0.000000 -0.668793 1.521032 14.102972 1.650197 -0.379725 -7.001557 -0.436802 -0.050449 -1.270759 1.529959 -1.895504 -5.557521 -1.746495 0.520419 7.917822 -29.519153 4.843602 0.539572 -53.943388 -5.853529 10.467670 5.772762 -22.802177 9.198960 -8.690631 -2.801721 3.742697 28.368538 -0.746099 1.381971 50.392765 1.889109 15.334421 -6.451214 13.527156 -8.160884 10.359402 2.852632 -0.142334 
0.751691 0.238142 0.998663 89.695607 -1.644105 86.408108 -6.047267 -4.850229 -13.816271 -3.240363 -6.367576 19.591632 10.017263 14.092125 -6.722832 0.000000 -0.000000 0.000000 -5.844341 0.335545 -12.580739 3.027013 -1.587332 67.549955 9.832525 -6.333402 27.419042 0.000000 -0.000000 0.000000 -0.500695 -0.560434 15.091723 1.747749 0.170673 -6.645885 -0.402453 -0.737322 -0.799853 1.287556 -1.009341 -6.366475 -1.948064 1.203125 7.539471 -29.251269 4.331836 0.345249 -53.091525 -5.792962 9.363744 5.355526 -24.217988 9.037526 -8.165411 -2.862326 3.369583 28.367751 -0.421834 1.290061 50.089060 0.517870 15.641337 -5.144525 12.341818 -6.445912 10.820591 2.718037 0.681956 
0.782457 0.240413 1.003854 90.550356 -0.818335 85.388158 -5.999194 -2.976068 -9.512928 -3.079304 -8.142761 18.072884 8.865982 13.636065 -8.311822 0.000000 -0.000000 0.000000 -5.057140 1.340799 -15.903898 2.832548 -4.227850 70.265229 7.969514 -3.641889 16.069967 0.000000 -0.000000 0.000000 0.079561 -2.814032 15.856534 2.080456 0.614685 -5.921389 -0.386376 -1.000715 -1.488969 1.073554 0.276986 -5.811028 -2.157035 0.560487 7.327735 -29.698833 3.775707 0.075923 -52.213493 -5.534518 9.452016 5.808300 -25.406998 8.368392 -7.161073 -2.943932 2.960695 28.115547 -0.655715 1.706516 50.134916 -1.486786 15.394204 -4.608194 13.000502 -4.553236 11.506104 2.428830 0.180405 
0.813010 0.243208 1.007510 91.602992 -0.039352 84.649529 -5.693096 -1.320384 -4.990087 -2.792994 -10.669880 15.474992 7.874917 13.217938 -9.219761 0.000000 -0.000000 0.000000 -4.256579 1.460985 -18.882526 2.970326 -5.817340 69.101205 6.022654 -2.282423 6.605136 0.000000 -0.000000 0.000000 0.730989 -4.236036 16.226947 2.269540 0.577122 -5.570403 -0.319851 -1.485148 -1.824266 1.093398 1.179231 -4.563631 -2.218592 0.387093 7.166213 -29.665955 3.398152 0.636525 -52.059095 -6.031662 9.361618 6.538522 -26.946471 6.978380 -6.266370 -2.810422 2.188081 27.882985 -1.128752 2.245479 50.425658 -3.525969 14.948150 -4.350952 14.379823 -3.577707 11.728683 2.441290 -0.490130 
0.841597 0.245934 1.010115 93.070464 0.798083 84.393250 -5.121789 -0.251330 -1.371060 -2.323257 -13.063637 13.243492 6.884285 12.943333 -10.042886 0.000000 -0.000000 0.000000 -3.819599 1.673931 -21.504642 2.864399 -8.012938 64.432995 4.375096 -3.830740 0.824529 0.000000 -0.000000 0.000000 1.500521 -5.694919 16.701414 2.332603 0.468566 -5.955654 -0.135092 -2.109183 -1.856809 1.047003 1.685384 -3.819421 -2.138189 0.451226 7.188096 -29.427555 3.565514 0.963599 -52.235450 -6.732902 9.204184 6.986069 -28.606225 5.914640 -5.666693 -2.584043 1.408295 27.644686 -1.991744 2.227662 50.614620 -5.099485 14.569881 -4.012502 15.445647 -3.078594 11.661605 2.454286 -0.893442 
0.868912 0.247114 1.010681 93.942078 1.210403 84.617112 -4.642189 1.144990 1.711675 -1.758235 -14.988630 10.804508 5.724731 12.418246 -10.906730 0.000000 -0.000000 0.000000 -3.380898 1.422364 -24.233021 2.375170 -9.245694 57.509134 3.166864 -6.268544 -3.339464 0.000000 -0.000000 0.000000 1.655344 -6.626432 16.727582 2.311520 0.527985 -6.194819 0.172562 -2.599030 -1.567846 1.100014 1.971851 -3.982748 -1.941975 0.358655 7.025148 -29.029085 3.906853 1.237750 -52.316983 -7.635769 9.245590 6.938991 -30.335084 6.066789 -4.319201 -3.132379 0.918014 27.557131 -2.774819 1.984453 50.904948 -6.365472 14.545191 -3.932693 16.801407 -2.766080 11.127817 2.732501 -1.518466 
0.895651 0.247370 1.009773 94.356116 1.455631 84.808360 -4.015527 2.445140 4.817621 -1.167826 -16.159804 8.165309 4.595411 11.836043 -11.654608 0.000000 -0.000000 0.000000 -2.914279 1.684238 -25.921162 2.072178 -9.535739 48.082360 3.176915 -7.855224 -4.352816 0.000000 -0.000000 0.000000 1.594439 -7.080514 17.175471 2.181564 0.742652 -6.574211 0.555426 -2.973990 -1.651348 1.154025 2.239579 -4.194260 -1.571641 0.485304 7.092236 -28.689982 4.338610 1.198526 -52.391900 -8.322630 9.373752 6.875623 -31.804663 6.263305 -3.405659 -4.120378 0.809675 27.441736 -3.507418 1.913232 51.440439 -7.074809 14.433952 -4.001505 17.344710 -2.929131 10.562955 2.907300 -1.994619 
0.922097 0.247023 1.007017 94.474926 1.397171 85.446777 -3.684783 3.337402 7.093870 -0.620579 -16.710407 6.126231 4.063971 11.222628 -12.432759 0.000000 -0.000000 0.000000 -2.485229 2.337126 -27.140007 1.677556 -8.360562 37.002373 3.320315 -8.532468 -1.850468 0.000000 -0.000000 0.000000 1.335299 -7.186471 16.955959 1.961719 0.986185 -6.610668 0.892566 -3.135269 -1.593144 1.121259 2.123606 -4.332717 -1.024486 0.473898 6.758442 -28.468035 4.625323 1.222988 -52.276671 -9.050582 9.740621 6.838050 -33.377574 6.546472 -2.554379 -4.778637 1.019627 27.688417 -4.158251 1.664684 51.695884 -7.206763 14.535804 -4.156352 17.300179 -3.579042 10.246566 2.738728 -2.388093 
